<svg xmlns="http://www.w3.org/2000/svg" width="256" height="275" fill="none" viewBox="0 0 256 275">
  <path d="m128.2 73.18c0-9.67 1.93-42.9 38.16-51.07 7.82-1.85 13.87-1.67 19.57-1.47 1.87 0.07 2.54 0.65 2.36 2.74-0.92 15.56-6.96 30.3-23.22 41.41-11.44 7.69-20.01 10.17-31.94 9.57-1.09-0.05-1.49-0.6-0.74-1.95 1.67-3.14 4.35-8.5 4.35-8.5-3.36 1.9-6.51 6.91-7.73 8.9-0.43 0.7-0.81 0.95-0.81 0.37z" fill="#95C12B"/>
  <path d="m116.4 72.13c1.07-12.67-7.6-39.09-35.18-44.45-10.02-2.07-21.19-1.42-30.93 3.54-1.32 0.65-1.57 1.4-1.22 3.12 3.75 19.39 18.77 32.82 36.87 37.49 6.35 1.58 12.99 0.93 18.25-0.92 1.47-0.55 1.54-0.9 0.84-2.25-4.3-7.65-9.95-13.18-15.89-17.95 9.59 4.07 18.68 12.2 25.62 22 0.55 0.8 1.52 0.6 1.64-0.58z" fill="#95C12B"/>
  <path d="m100.2 10.8c8.92 0.85 20.46 11.96 24.06 23.19 1.07 3.39-0.6 2.84-1.87 2.64-12.08-1.89-21.22-10.02-22.89-22.02-0.25-1.9-0.25-3.56 0.7-3.81z" fill="#95C12B"/>
  <path d="m126 95.11c-25.23 0-44.36 20.7-44.36 43.98 0 10.86 4.1 21.22 11.24 30.59l37.23 9.12 34.66-28.65c-0.1-7.2 1.97-12.36 6.07-16.63-3.1-21.35-20.75-38.41-44.84-38.41zm0.75 26.43-13.61 6.33c-1.92 0.85-3.04-2.09-1.92-4.53 2.52-5.42 8.86-8.36 16.93-10.84l-1.4 9.04zm14.44 0.2c-3.75 0-5.37-4.52-3.25-7.26 2.37-3.18 7.18-1.83 7.88 1.6 0.6 2.84-1.57 5.66-4.63 5.66z" fill="url(#paint0_linear_12_32)"/>
  <path d="m192.2 86.22c-11.44 0-21.03 4.02-27.47 9.19 5.4 8.42 17.04 18.88 21.19 32.31 3.31-0.9 5.93-1.3 8.99-1.3 12.74 0 23.48 9.91 23.48 21.92 0 11.57-10.44 23.68-25.39 24.58l1.72 11.11c23.22-0.85 47.01-21.95 47.01-49.11 0-25.67-21.54-48.7-49.53-48.7z" fill="url(#paint1_linear_12_32)"/>
  <path d="m177.9 191.6c-1.52-0.65-2.54 0.55-3.49 1.4l-7.72 7.09c-1.22 1.15-1.52 1.85-0.6 2.05l15.12 3.19c2.52 0.6 3.02-1.89 2.42-4.49-0.86-3.14-2.53-8.01-5.73-9.24z" fill="url(#paint2_linear_12_32)"/>
  <path d="m145.9 255.1c-7.14-12.21-6.99-29.07-25.13-38.11-12.9-4.32-25.89-10-37.48-10.65-5.45-0.3-13.22 1.05-15.39 3.59-2.62 4.82 3.17 17.99 15.11 34.26 11.74 15.56 28.44 18.1 41.69 18.1 8.57 0 16.99-1.9 21.14-5.09 0.96-0.75 0.56-1.35 0.06-2.1z" fill="url(#paint3_linear_12_32)"/>
  <path d="m63.69 87.22c-21.64 0-37.9 13.22-45.18 26.69-3.8 6.18-4.93 14.31-4.68 23.04 0.45 14.11 8.22 30.33 18.96 39.11 1.92 1.35 2.62 0 2.62-1.6 1.01-11.76 12.8-23.62 27.82-23.62h1.07c3.11 0 3.41-2.19 2.81-6.31-0.35-1.9-0.5-3.8-0.5-5.74 0-15.56 8.57-32.13 23.11-44.19-6.54-4.36-14.61-7.38-26.03-7.38z" fill="url(#paint4_linear_12_32)"/>
  <path d="m194.4 132c-10.54 0.35-18.16 10.01-17.31 20.67 0.25 2.79 0.95 4.54 1.71 5.29l-45.12 38.8-51.92-15.96c0.6-10.16-8.02-19.34-19.11-18.49-9.94 0.75-16.88 8.88-16.88 18.19 0 9.57 8.42 17.55 17.81 17.2 6.59-0.25 11.5-3.44 14.46-7.81l53.92 15.91 21.24 19.09c-1.36 2.84-2.26 5.18-1.96 9.3 1.05 10.11 9.32 17 19.26 16.2 9.94-0.85 17.36-9.58 16.96-17.91-0.6-9.86-9.69-18.69-20.83-17.34-2.77 0.35-4.64 1.25-6.06 2.45l-16.7-15.26 43.49-36.6c2.67 1.2 5.04 1.65 8.25 1.45 9.94-0.75 17.17-9.48 16.57-19.1-0.8-9.18-8.87-16.42-17.78-16.08z" fill="#E73486"/>
  <defs>
    <linearGradient id="paint0_linear_12_32" x1="85.52" x2="160.1" y1="98.61" y2="161.2" gradientUnits="userSpaceOnUse">
      <stop stop-color="#4A8CC6" offset="0"/>
      <stop stop-color="#2776B7" offset=".4948"/>
      <stop stop-color="#1667A8" offset="1"/>
    </linearGradient>
    <linearGradient id="paint1_linear_12_32" x1="164.7" x2="246.3" y1="86.22" y2="167.2" gradientUnits="userSpaceOnUse">
      <stop stop-color="#1667A8" offset="0"/>
      <stop stop-color="#3F83BF" offset=".5052"/>
      <stop stop-color="#5BA1D4" offset="1"/>
    </linearGradient>
    <linearGradient id="paint2_linear_12_32" x1="165.4" x2="187.5" y1="191.3" y2="202" gradientUnits="userSpaceOnUse">
      <stop stop-color="#1667A8" offset="0"/>
      <stop stop-color="#3F83BF" offset=".5052"/>
      <stop stop-color="#5BA1D4" offset="1"/>
    </linearGradient>
    <linearGradient id="paint3_linear_12_32" x1="67.22" x2="138.4" y1="206.3" y2="267.6" gradientUnits="userSpaceOnUse">
      <stop stop-color="#4A8CC6" offset="0"/>
      <stop stop-color="#2776B7" offset=".4948"/>
      <stop stop-color="#1667A8" offset="1"/>
    </linearGradient>
    <linearGradient id="paint4_linear_12_32" x1="13.77" x2="91.1" y1="87.22" y2="158.5" gradientUnits="userSpaceOnUse">
      <stop stop-color="#1667A8" offset="0"/>
      <stop stop-color="#3F83BF" offset=".5052"/>
      <stop stop-color="#5BA1D4" offset="1"/>
    </linearGradient>
  </defs>
</svg>